<?xml version="1.0" standalone="no"?><!DOCTYPE svg PUBLIC "-//W3C//DTD SVG 1.1//EN" "http://www.w3.org/Graphics/SVG/1.1/DTD/svg11.dtd"><svg xmlns:xlink="http://www.w3.org/1999/xlink" version="1.1" class="highcharts-root" style="font-family:&quot;Lucida Grande&quot;, &quot;Lucida Sans Unicode&quot;, Arial, Helvetica, sans-serif;font-size:12px;" xmlns="http://www.w3.org/2000/svg" width="1000" height="500" viewBox="0 0 1000 500"><desc>Created with Highcharts 8.1.2</desc><defs><clipPath id="highcharts-fa1fbg5-1013-"><rect x="0" y="0" width="925" height="376" fill="none"></rect></clipPath><clipPath id="highcharts-fa1fbg5-1513-"><rect x="0" y="450" width="1000" height="550" fill="none"></rect></clipPath><clipPath id="highcharts-fa1fbg5-1514-"><rect x="0" y="0" width="1000" height="1000" fill="none"></rect></clipPath></defs><rect fill="#ffffff" class="highcharts-background" x="0" y="0" width="1000" height="500" rx="0" ry="0"></rect><rect fill="none" class="highcharts-plot-background" x="65" y="74" width="925" height="376"></rect><g class="highcharts-pane-group" data-z-index="0"></g><g class="highcharts-plot-lines-0" data-z-index="0"><path fill="none" class="highcharts-plot-line " stroke="rgb(96,96,96)" stroke-width="1"></path></g><g class="highcharts-grid highcharts-xaxis-grid" data-z-index="1"><path fill="none" stroke="#e6e6e6" stroke-width="1" data-z-index="1" class="highcharts-grid-line" d="M 130.5 74 L 130.5 450" opacity="1"></path><path fill="none" stroke="#e6e6e6" stroke-width="1" data-z-index="1" class="highcharts-grid-line" d="M 241.5 74 L 241.5 450" opacity="1"></path><path fill="none" stroke="#e6e6e6" stroke-width="1" data-z-index="1" class="highcharts-grid-line" d="M 353.5 74 L 353.5 450" opacity="1"></path><path fill="none" stroke="#e6e6e6" stroke-width="1" data-z-index="1" class="highcharts-grid-line" d="M 464.5 74 L 464.5 450" opacity="1"></path><path fill="none" stroke="#e6e6e6" stroke-width="1" data-z-index="1" class="highcharts-grid-line" d="M 576.5 74 L 576.5 450" opacity="1"></path><path fill="none" stroke="#e6e6e6" stroke-width="1" data-z-index="1" class="highcharts-grid-line" d="M 687.5 74 L 687.5 450" opacity="1"></path><path fill="none" stroke="#e6e6e6" stroke-width="1" data-z-index="1" class="highcharts-grid-line" d="M 799.5 74 L 799.5 450" opacity="1"></path><path fill="none" stroke="#e6e6e6" stroke-width="1" data-z-index="1" class="highcharts-grid-line" d="M 910.5 74 L 910.5 450" opacity="1"></path></g><g class="highcharts-grid highcharts-yaxis-grid" data-z-index="1"><path fill="none" stroke="#e6e6e6" stroke-width="1" data-z-index="1" class="highcharts-grid-line" d="M 65 450.5 L 990 450.5" opacity="1"></path><path fill="none" stroke="#e6e6e6" stroke-width="1" data-z-index="1" class="highcharts-grid-line" d="M 65 396.5 L 990 396.5" opacity="1"></path><path fill="none" stroke="#e6e6e6" stroke-width="1" data-z-index="1" class="highcharts-grid-line" d="M 65 343.5 L 990 343.5" opacity="1"></path><path fill="none" stroke="#e6e6e6" stroke-width="1" data-z-index="1" class="highcharts-grid-line" d="M 65 289.5 L 990 289.5" opacity="1"></path><path fill="none" stroke="#e6e6e6" stroke-width="1" data-z-index="1" class="highcharts-grid-line" d="M 65 235.5 L 990 235.5" opacity="1"></path><path fill="none" stroke="#e6e6e6" stroke-width="1" data-z-index="1" class="highcharts-grid-line" d="M 65 181.5 L 990 181.5" opacity="1"></path><path fill="none" stroke="#e6e6e6" stroke-width="1" data-z-index="1" class="highcharts-grid-line" d="M 65 128.5 L 990 128.5" opacity="1"></path><path fill="none" stroke="#e6e6e6" stroke-width="1" data-z-index="1" class="highcharts-grid-line" d="M 65 73.5 L 990 73.5" opacity="1"></path></g><rect fill="none" class="highcharts-plot-border" data-z-index="1" stroke="#cccccc" stroke-width="1" x="64.5" y="73.5" width="926" height="377"></rect><g class="highcharts-axis highcharts-xaxis" data-z-index="2"><path fill="none" class="highcharts-axis-line" stroke="#ccd6eb" stroke-width="1" data-z-index="7" d="M 65 450.5 L 990 450.5"></path></g><g class="highcharts-axis highcharts-yaxis" data-z-index="2"><path fill="none" class="highcharts-axis-line" data-z-index="7" d="M 65 74 L 65 450"></path></g><text x="75" y="96" data-z-index="2" style="position:absolute;color:rgb(128,128,128);font-family:Arial;font-size:15px;font-weight:normal;fill:rgb(128,128,128);"></text><g class="highcharts-series-group" data-z-index="3"><g class="highcharts-series highcharts-series-0 highcharts-line-series" data-z-index="0.1" opacity="1" transform="translate(65,74) scale(1 1)" clip-path="url(#highcharts-fa1fbg5-1013-)"><path fill="none" d="M 0 247.08571428571398 L 1.8919951724157 240.6400000000002 L 3.6008940378234 223.45142857142838 L 5.4928892102391 227.74857142857115 L 7.3213092760548 236.34285714285744 L 9.2133044484705 268.57142857142856 L 11.04426751855 277.1657142857141 L 12.936262690966 268.57142857142856 L 14.828257863382 262.125714285714 L 16.659220933461 277.1657142857141 L 18.553759110141 294.35428571428594 L 20.384722180221 266.4228571428568 L 22.276717352636 223.45142857142838 L 24.168712525052 193.37142857142825 L 25.87761139046 191.22285714285726 L 27.769606562875 201.96571428571457 L 29.598026628691 223.45142857142838 L 31.490021801107 236.34285714285744 L 33.320984871187 257.8285714285713 L 35.212980043602 242.7885714285712 L 37.104975216018 251.38285714285752 L 38.935938286098 279.31428571428586 L 40.830476462777 292.2057142857142 L 42.661439532857 281.4628571428569 L 44.553434705273 253.5314285714285 L 46.445429877688 221.3028571428574 L 48.215360845432 217.00571428571462 L 50.107356017848 225.60000000000014 L 51.935776083663 249.23428571428576 L 53.827771256079 275.0171428571431 L 55.658734326159 275.0171428571431 L 57.550729498575 255.6800000000003 L 59.44272467099 251.38285714285752 L 61.27368774107 302.9485714285714 L 63.16822591775 309.39428571428596 L 64.999188987829 305.09714285714324 L 66.891184160245 279.31428571428586 L 68.783179332661 253.5314285714285 L 70.492078198068 242.7885714285712 L 72.384073370484 257.8285714285713 L 74.2124934363 272.86857142857133 L 76.104488608715 298.6514285714287 L 77.935451678795 287.9085714285714 L 79.827446851211 290.05714285714316 L 81.719442023627 287.9085714285714 L 83.550405093706 309.39428571428596 L 85.444943270386 326.58285714285705 L 87.275906340466 309.39428571428596 L 89.167901512881 287.9085714285714 L 91.059896685297 251.38285714285752 L 92.768795550705 238.49142857142846 L 94.66079072312 247.08571428571398 L 96.489210788936 264.27428571428584 L 98.381205961352 270.72000000000037 L 100.21216903143 277.1657142857141 L 102.10416420385 270.72000000000037 L 103.99615937626 264.27428571428584 L 105.82712244634 279.31428571428586 L 107.72166062302 296.5028571428569 L 109.5526236931 292.2057142857142 L 111.44461886552 259.977142857143 L 113.33661403793 227.74857142857115 L 115.04551290334 199.81714285714278 L 116.93496507149 212.70857142857108 L 118.76592814157 232.04571428571393 L 120.65792331399 255.6800000000003 L 122.48888638407 236.34285714285744 L 124.38088155648 221.3028571428574 L 126.2728767289 221.3028571428574 L 128.10383979898 257.8285714285713 L 129.99837797566 262.125714285714 L 131.82934104574 255.6800000000003 L 133.72133621815 217.00571428571462 L 135.61333139057 184.77714285714274 L 137.38326235831 182.62857142857172 L 139.27271452647 197.6685714285718 L 141.10367759654 229.8971428571429 L 142.99567276896 249.23428571428576 L 144.82663583904 257.8285714285713 L 146.71863101146 247.08571428571398 L 148.61062618387 259.977142857143 L 150.44158925395 283.61142857142863 L 152.33612743063 317.9885714285715 L 154.16709050071 313.69142857142873 L 156.05908567313 270.72000000000037 L 157.95108084554 244.937142857143 L 159.65997971095 227.74857142857115 L 161.5494318791 234.19428571428568 L 163.38039494918 249.23428571428576 L 165.2723901216 268.57142857142856 L 167.10335319168 251.38285714285752 L 168.99534836409 247.08571428571398 L 170.88734353651 253.5314285714285 L 172.71830660659 290.05714285714316 L 174.61284478327 294.35428571428594 L 176.44380785335 287.9085714285714 L 178.33580302576 253.5314285714285 L 180.22779819818 206.2628571428573 L 181.93669706359 197.6685714285718 L 183.82614923174 195.52000000000004 L 185.65711230182 214.85714285714286 L 187.54910747423 251.38285714285752 L 189.38007054431 238.49142857142846 L 191.27206571673 229.8971428571429 L 193.16406088914 240.6400000000002 L 194.99502395922 255.6800000000003 L 196.8895621359 279.31428571428586 L 198.72052520598 262.125714285714 L 200.6125203784 240.6400000000002 L 202.50451555081 201.96571428571457 L 204.21341441622 195.52000000000004 L 206.10286658437 189.0742857142855 L 207.93382965445 210.5600000000001 L 209.82582482687 240.6400000000002 L 211.65678789695 234.19428571428568 L 213.54878306936 236.34285714285744 L 215.44077824178 247.08571428571398 L 217.27174131186 279.31428571428586 L 219.16627948854 296.5028571428569 L 220.99724255862 272.86857142857133 L 222.88923773104 244.937142857143 L 224.78123290345 208.41142857142833 L 226.55116387119 201.96571428571457 L 228.44061603935 208.41142857142833 L 230.27157910943 221.3028571428574 L 232.16357428184 255.6800000000003 L 233.99453735192 266.4228571428568 L 235.88653252434 262.125714285714 L 237.77852769675 264.27428571428584 L 239.60949076683 302.9485714285714 L 241.50402894351 309.39428571428596 L 243.33499201359 294.35428571428594 L 245.22698718601 247.08571428571398 L 247.11898235842 221.3028571428574 L 248.82788122383 208.41142857142833 L 250.71733339198 221.3028571428574 L 252.54829646206 234.19428571428568 L 254.44029163448 262.125714285714 L 256.27125470456 270.72000000000037 L 258.16324987697 249.23428571428576 L 260.05524504939 257.8285714285713 L 261.88620811947 277.1657142857141 L 263.78074629615 287.9085714285714 L 265.61170936623 279.31428571428586 L 267.50370453864 253.5314285714285 L 269.39569971106 240.6400000000002 L 271.10459857647 208.41142857142833 L 272.99405074462 221.3028571428574 L 274.8250138147 229.8971428571429 L 276.71700898711 266.4228571428568 L 278.54797205719 257.8285714285713 L 280.43996722961 227.74857142857115 L 282.33196240203 257.8285714285713 L 284.16292547211 266.4228571428568 L 286.05746364878 277.1657142857141 L 287.88842671886 266.4228571428568 L 289.78042189128 234.19428571428568 L 291.6724170637 201.96571428571457 L 293.3813159291 186.9257142857145 L 295.27076809726 199.81714285714278 L 297.10173116734 227.74857142857115 L 298.99372633975 234.19428571428568 L 300.82468940983 219.1542857142856 L 302.71668458225 221.3028571428574 L 304.60867975466 242.7885714285712 L 306.43964282474 266.4228571428568 L 308.33418100142 272.86857142857133 L 310.1651440715 270.72000000000037 L 312.05713924392 251.38285714285752 L 313.94913441633 206.2628571428573 L 315.71906538408 193.37142857142825 L 317.60851755223 206.2628571428573 L 319.43948062231 229.8971428571429 L 321.33147579472 242.7885714285712 L 323.1624388648 251.38285714285752 L 325.05443403722 238.49142857142846 L 326.94642920963 249.23428571428576 L 328.77739227971 275.0171428571431 L 330.67193045639 292.2057142857142 L 332.50289352647 277.1657142857141 L 334.39488869889 251.38285714285752 L 336.2868838713 208.41142857142833 L 337.99578273671 184.77714285714274 L 339.88523490486 204.11428571428556 L 341.71619797494 208.41142857142833 L 343.60819314736 214.85714285714286 L 345.43915621744 206.2628571428573 L 347.33115138985 197.6685714285718 L 349.22314656227 197.6685714285718 L 351.05410963235 219.1542857142856 L 352.94864780903 227.74857142857115 L 354.77961087911 208.41142857142833 L 356.67160605153 191.22285714285726 L 358.56360122394 154.6971428571426 L 360.27250008935 148.25142857142885 L 362.1619522575 150.39999999999984 L 363.99291532758 169.73714285714266 L 365.8849105 195.52000000000004 L 367.71587357008 186.9257142857145 L 369.60786874249 180.47999999999996 L 371.49986391491 223.45142857142838 L 373.33082698499 253.5314285714285 L 375.22536516167 255.6800000000003 L 377.05632823175 264.27428571428584 L 378.94832340416 242.7885714285712 L 380.84031857658 206.2628571428573 L 382.54921744199 184.77714285714274 L 384.43866961014 210.5600000000001 L 386.26963268022 232.04571428571393 L 388.16162785263 251.38285714285752 L 389.99259092271 249.23428571428576 L 391.88458609513 244.937142857143 L 393.77658126754 249.23428571428576 L 395.60754433762 279.31428571428586 L 397.5020825143 285.75999999999965 L 399.33304558438 279.31428571428586 L 401.2250407568 247.08571428571398 L 403.11703592921 204.11428571428556 L 404.88696689696 201.96571428571457 L 406.77641906511 201.96571428571457 L 408.60738213519 236.34285714285744 L 410.4993773076 251.38285714285752 L 412.33034037768 249.23428571428576 L 414.2223355501 225.60000000000014 L 416.11433072252 221.3028571428574 L 417.9452937926 257.8285714285713 L 419.83983196927 268.57142857142856 L 421.67079503935 264.27428571428584 L 423.56279021177 227.74857142857115 L 425.45478538419 195.52000000000004 L 427.16368424959 163.2914285714289 L 429.05313641775 176.1828571428572 L 430.88409948783 193.37142857142825 L 432.77609466024 206.2628571428573 L 434.60705773032 201.96571428571457 L 436.49905290274 193.37142857142825 L 438.39104807515 201.96571428571457 L 440.22201114523 238.49142857142846 L 442.11654932191 244.937142857143 L 443.94751239199 236.34285714285744 L 445.83950756441 204.11428571428556 L 447.73150273682 178.3314285714282 L 449.44040160223 150.39999999999984 L 451.32985377038 163.2914285714289 L 453.16081684046 180.47999999999996 L 455.05281201288 197.6685714285718 L 456.88377508296 208.41142857142833 L 458.77577025537 199.81714285714278 L 460.66776542779 210.5600000000001 L 462.49872849787 227.74857142857115 L 464.39326667455 244.937142857143 L 466.22422974463 225.60000000000014 L 468.11622491704 197.6685714285718 L 470.00822008946 163.2914285714289 L 471.71711895487 148.25142857142885 L 473.60657112302 165.4399999999999 L 475.4375341931 186.9257142857145 L 477.32952936551 204.11428571428556 L 479.16049243559 189.0742857142855 L 481.05248760801 174.03428571428543 L 482.94448278042 182.62857142857172 L 484.7754458505 201.96571428571457 L 486.66998402718 227.74857142857115 L 488.50094709726 223.45142857142838 L 490.39294226968 195.52000000000004 L 492.2849374421 161.14285714285714 L 494.05486840984 154.6971428571426 L 495.94432057799 158.99428571428538 L 497.77528364807 195.52000000000004 L 499.66727882049 219.1542857142856 L 501.49824189057 212.70857142857108 L 503.39023706298 186.9257142857145 L 505.2822322354 197.6685714285718 L 507.11319530548 225.60000000000014 L 509.00773348216 238.49142857142846 L 510.83869655224 229.8971428571429 L 512.73069172465 180.47999999999996 L 514.62268689707 150.39999999999984 L 516.33158576248 141.80571428571432 L 518.22103793063 150.39999999999984 L 520.05200100071 163.2914285714289 L 521.94399617312 182.62857142857172 L 523.7749592432 176.1828571428572 L 525.66695441562 161.14285714285714 L 527.55894958803 180.47999999999996 L 529.38991265811 210.5600000000001 L 531.28445083479 236.34285714285744 L 533.11541390487 223.45142857142838 L 535.00740907729 201.96571428571457 L 536.8994042497 169.73714285714266 L 538.60830311511 163.2914285714289 L 540.49775528326 161.14285714285714 L 542.32871835334 176.1828571428572 L 544.22071352576 191.22285714285726 L 546.05167659584 197.6685714285718 L 547.94367176825 178.3314285714282 L 549.83566694067 180.47999999999996 L 551.66663001075 214.85714285714286 L 553.56116818743 219.1542857142856 L 555.39213125751 204.11428571428556 L 557.28412642992 182.62857142857172 L 559.17612160234 150.39999999999984 L 560.88247746348 150.39999999999984 L 562.7744726359 163.2914285714289 L 564.60543570598 189.0742857142855 L 566.49743087839 193.37142857142825 L 568.32839394847 199.81714285714278 L 570.22038912089 197.6685714285718 L 572.11238429331 199.81714285714278 L 573.94334736339 234.19428571428568 L 575.83788554007 268.57142857142856 L 577.66884861015 259.977142857143 L 579.56084378256 227.74857142857115 L 581.45283895498 191.22285714285726 L 583.22022691846 171.88571428571444 L 585.11222209087 180.47999999999996 L 586.94318516095 191.22285714285726 L 588.83518033337 208.41142857142833 L 590.66614340345 193.37142857142825 L 592.55813857586 180.47999999999996 L 594.45013374828 186.9257142857145 L 596.28109681836 212.70857142857108 L 598.17563499504 240.6400000000002 L 600.00659806512 232.04571428571393 L 601.89859323753 197.6685714285718 L 603.79058840995 178.3314285714282 L 605.49694427109 163.2914285714289 L 607.38893944351 156.84571428571437 L 609.21990251359 169.73714285714266 L 611.111897686 158.99428571428538 L 612.94286075608 156.84571428571437 L 614.8348559285 156.84571428571437 L 616.72685110091 180.47999999999996 L 618.55781417099 197.6685714285718 L 620.45235234767 210.5600000000001 L 622.28331541775 176.1828571428572 L 624.17531059017 158.99428571428538 L 626.06730576259 128.91428571428602 L 627.77366162373 118.17142857142869 L 629.66565679614 120.31999999999971 L 631.49661986622 150.39999999999984 L 633.38861503864 171.88571428571444 L 635.21957810872 171.88571428571444 L 637.11157328114 174.03428571428543 L 639.00356845355 195.52000000000004 L 640.83453152363 227.74857142857115 L 642.72906970031 247.08571428571398 L 644.56003277039 234.19428571428568 L 646.45202794281 208.41142857142833 L 648.34402311522 174.03428571428543 L 650.05037897637 156.84571428571437 L 651.94237414878 167.58857142857167 L 653.77333721886 184.77714285714274 L 655.66533239128 195.52000000000004 L 657.49629546136 193.37142857142825 L 659.38829063377 189.0742857142855 L 661.28028580619 208.41142857142833 L 663.11124887627 236.34285714285744 L 665.00578705295 244.937142857143 L 666.83675012303 244.937142857143 L 668.72874529544 214.85714285714286 L 670.62074046786 171.88571428571444 L 672.38812843134 165.4399999999999 L 674.28012360375 165.4399999999999 L 676.11108667383 174.03428571428543 L 678.00308184625 197.6685714285718 L 679.83404491633 184.77714285714274 L 681.72604008874 174.03428571428543 L 683.61803526116 176.1828571428572 L 685.44899833124 206.2628571428573 L 687.34353650792 225.60000000000014 L 689.174499578 212.70857142857108 L 691.06649475041 195.52000000000004 L 692.95848992283 165.4399999999999 L 694.66484578397 154.6971428571426 L 696.55684095639 152.54857142857162 L 698.38780402647 169.73714285714266 L 700.27979919888 204.11428571428556 L 702.11076226896 176.1828571428572 L 704.00275744138 161.14285714285714 L 705.8947526138 171.88571428571444 L 707.72571568388 210.5600000000001 L 709.62025386056 208.41142857142833 L 711.45121693064 206.2628571428573 L 713.34321210305 180.47999999999996 L 715.23520727547 152.54857142857162 L 716.94156313661 126.76571428571424 L 718.83355830903 118.17142857142869 L 720.66452137911 143.95428571428607 L 722.55651655152 152.54857142857162 L 724.3874796216 158.99428571428538 L 726.27947479402 131.062857142857 L 728.17146996643 146.1028571428571 L 730.00243303651 176.1828571428572 L 731.89697121319 195.52000000000004 L 733.72793428327 184.77714285714274 L 735.61992945569 158.99428571428538 L 737.5119246281 126.76571428571424 L 739.21828048925 116.02285714285694 L 741.11027566166 103.13142857142867 L 742.94123873174 122.4685714285715 L 744.83323390416 141.80571428571432 L 746.66419697424 133.21142857142877 L 748.55619214665 118.17142857142869 L 750.44818731907 111.72571428571416 L 752.27915038915 135.3599999999998 L 754.17368856583 148.25142857142885 L 756.00465163591 137.50857142857154 L 757.89664680832 94.53714285714312 L 759.78864198074 79.49714285714305 L 761.55602994422 64.45714285714303 L 763.44802511663 83.79428571428582 L 765.27898818671 116.02285714285694 L 767.17098335913 128.91428571428602 L 769.00194642921 128.91428571428602 L 770.89394160163 120.31999999999971 L 772.78593677404 133.21142857142877 L 774.61689984412 167.58857142857167 L 776.5114380208 197.6685714285718 L 778.34240109088 178.3314285714282 L 780.2343962633 143.95428571428607 L 782.12639143571 107.42857142857144 L 783.83274729686 92.38857142857137 L 785.72474246927 92.38857142857137 L 787.55570553935 124.61714285714248 L 789.44770071177 141.80571428571432 L 791.27866378185 131.062857142857 L 793.17065895426 118.17142857142869 L 795.06265412668 143.95428571428607 L 796.89361719676 174.03428571428543 L 798.78815537344 191.22285714285726 L 800.61911844352 195.52000000000004 L 802.51111361593 163.2914285714289 L 804.40310878835 139.65714285714256 L 806.10946464949 109.5771428571432 L 808.00145982191 111.72571428571416 L 809.83242289199 131.062857142857 L 811.7244180644 158.99428571428538 L 813.55538113448 163.2914285714289 L 815.4473763069 143.95428571428607 L 817.33937147931 146.1028571428571 L 819.17033454939 158.99428571428538 L 821.06487272607 171.88571428571444 L 822.89583579615 161.14285714285714 L 824.78783096857 137.50857142857154 L 826.67982614098 107.42857142857144 L 828.38618200213 83.79428571428582 L 830.27817717454 94.53714285714312 L 832.10914024462 120.31999999999971 L 834.00113541704 133.21142857142877 L 835.83209848712 126.76571428571424 L 837.72409365953 111.72571428571416 L 839.61608883195 135.3599999999998 L 841.44705190203 158.99428571428538 L 843.34159007871 169.73714285714266 L 845.17255314879 156.84571428571437 L 847.0645483212 120.31999999999971 L 848.95654349362 94.53714285714312 L 850.7239314571 73.05142857142852 L 852.61592662952 79.49714285714305 L 854.4468896996 109.5771428571432 L 856.33888487201 131.062857142857 L 858.16984794209 118.17142857142869 L 860.06184311451 103.13142857142867 L 861.95383828692 124.61714285714248 L 863.784801357 156.84571428571437 L 865.67933953368 180.47999999999996 L 867.51030260376 182.62857142857172 L 869.40229777618 156.84571428571437 L 871.29429294859 122.4685714285715 L 873.00064880974 100.98285714285691 L 874.89264398215 107.42857142857144 L 876.72360705223 118.17142857142869 L 878.61560222465 133.21142857142877 L 880.44656529473 120.31999999999971 L 882.33856046714 113.87428571428597 L 884.23055563956 122.4685714285715 L 886.06151870964 152.54857142857162 L 887.95605688632 169.73714285714266 L 889.7870199564 176.1828571428572 L 891.67901512881 131.062857142857 L 893.57101030123 109.5771428571432 L 895.27736616237 94.53714285714312 L 897.16936133479 105.27999999999963 L 899.00032440487 124.61714285714248 L 900.89231957728 131.062857142857 L 902.72328264736 131.062857142857 L 904.61527781978 113.87428571428597 L 906.50727299219 124.61714285714248 L 908.33823606227 158.99428571428538 L 910.23277423895 169.73714285714266 L 912.06373730903 154.6971428571426 L 913.95573248145 131.062857142857 L 915.84772765387 96.68571428571414 L 917.55408351501 62.30857142857121 L 919.44607868742 51.565714285713966 L 921.2770417575 77.34857142857129 L 923.16903692992 81.64571428571406 L 925 62.30857142857121" class="highcharts-graph" data-z-index="1" stroke="rgb(220,80,0)" stroke-width="2" stroke-linejoin="round" stroke-linecap="round" visibility="hidden"></path><path fill="none" d="M 0 247.08571428571398 L 1.8919951724157 240.6400000000002 L 3.6008940378234 223.45142857142838 L 5.4928892102391 227.74857142857115 L 7.3213092760548 236.34285714285744 L 9.2133044484705 268.57142857142856 L 11.04426751855 277.1657142857141 L 12.936262690966 268.57142857142856 L 14.828257863382 262.125714285714 L 16.659220933461 277.1657142857141 L 18.553759110141 294.35428571428594 L 20.384722180221 266.4228571428568 L 22.276717352636 223.45142857142838 L 24.168712525052 193.37142857142825 L 25.87761139046 191.22285714285726 L 27.769606562875 201.96571428571457 L 29.598026628691 223.45142857142838 L 31.490021801107 236.34285714285744 L 33.320984871187 257.8285714285713 L 35.212980043602 242.7885714285712 L 37.104975216018 251.38285714285752 L 38.935938286098 279.31428571428586 L 40.830476462777 292.2057142857142 L 42.661439532857 281.4628571428569 L 44.553434705273 253.5314285714285 L 46.445429877688 221.3028571428574 L 48.215360845432 217.00571428571462 L 50.107356017848 225.60000000000014 L 51.935776083663 249.23428571428576 L 53.827771256079 275.0171428571431 L 55.658734326159 275.0171428571431 L 57.550729498575 255.6800000000003 L 59.44272467099 251.38285714285752 L 61.27368774107 302.9485714285714 L 63.16822591775 309.39428571428596 L 64.999188987829 305.09714285714324 L 66.891184160245 279.31428571428586 L 68.783179332661 253.5314285714285 L 70.492078198068 242.7885714285712 L 72.384073370484 257.8285714285713 L 74.2124934363 272.86857142857133 L 76.104488608715 298.6514285714287 L 77.935451678795 287.9085714285714 L 79.827446851211 290.05714285714316 L 81.719442023627 287.9085714285714 L 83.550405093706 309.39428571428596 L 85.444943270386 326.58285714285705 L 87.275906340466 309.39428571428596 L 89.167901512881 287.9085714285714 L 91.059896685297 251.38285714285752 L 92.768795550705 238.49142857142846 L 94.66079072312 247.08571428571398 L 96.489210788936 264.27428571428584 L 98.381205961352 270.72000000000037 L 100.21216903143 277.1657142857141 L 102.10416420385 270.72000000000037 L 103.99615937626 264.27428571428584 L 105.82712244634 279.31428571428586 L 107.72166062302 296.5028571428569 L 109.5526236931 292.2057142857142 L 111.44461886552 259.977142857143 L 113.33661403793 227.74857142857115 L 115.04551290334 199.81714285714278 L 116.93496507149 212.70857142857108 L 118.76592814157 232.04571428571393 L 120.65792331399 255.6800000000003 L 122.48888638407 236.34285714285744 L 124.38088155648 221.3028571428574 L 126.2728767289 221.3028571428574 L 128.10383979898 257.8285714285713 L 129.99837797566 262.125714285714 L 131.82934104574 255.6800000000003 L 133.72133621815 217.00571428571462 L 135.61333139057 184.77714285714274 L 137.38326235831 182.62857142857172 L 139.27271452647 197.6685714285718 L 141.10367759654 229.8971428571429 L 142.99567276896 249.23428571428576 L 144.82663583904 257.8285714285713 L 146.71863101146 247.08571428571398 L 148.61062618387 259.977142857143 L 150.44158925395 283.61142857142863 L 152.33612743063 317.9885714285715 L 154.16709050071 313.69142857142873 L 156.05908567313 270.72000000000037 L 157.95108084554 244.937142857143 L 159.65997971095 227.74857142857115 L 161.5494318791 234.19428571428568 L 163.38039494918 249.23428571428576 L 165.2723901216 268.57142857142856 L 167.10335319168 251.38285714285752 L 168.99534836409 247.08571428571398 L 170.88734353651 253.5314285714285 L 172.71830660659 290.05714285714316 L 174.61284478327 294.35428571428594 L 176.44380785335 287.9085714285714 L 178.33580302576 253.5314285714285 L 180.22779819818 206.2628571428573 L 181.93669706359 197.6685714285718 L 183.82614923174 195.52000000000004 L 185.65711230182 214.85714285714286 L 187.54910747423 251.38285714285752 L 189.38007054431 238.49142857142846 L 191.27206571673 229.8971428571429 L 193.16406088914 240.6400000000002 L 194.99502395922 255.6800000000003 L 196.8895621359 279.31428571428586 L 198.72052520598 262.125714285714 L 200.6125203784 240.6400000000002 L 202.50451555081 201.96571428571457 L 204.21341441622 195.52000000000004 L 206.10286658437 189.0742857142855 L 207.93382965445 210.5600000000001 L 209.82582482687 240.6400000000002 L 211.65678789695 234.19428571428568 L 213.54878306936 236.34285714285744 L 215.44077824178 247.08571428571398 L 217.27174131186 279.31428571428586 L 219.16627948854 296.5028571428569 L 220.99724255862 272.86857142857133 L 222.88923773104 244.937142857143 L 224.78123290345 208.41142857142833 L 226.55116387119 201.96571428571457 L 228.44061603935 208.41142857142833 L 230.27157910943 221.3028571428574 L 232.16357428184 255.6800000000003 L 233.99453735192 266.4228571428568 L 235.88653252434 262.125714285714 L 237.77852769675 264.27428571428584 L 239.60949076683 302.9485714285714 L 241.50402894351 309.39428571428596 L 243.33499201359 294.35428571428594 L 245.22698718601 247.08571428571398 L 247.11898235842 221.3028571428574 L 248.82788122383 208.41142857142833 L 250.71733339198 221.3028571428574 L 252.54829646206 234.19428571428568 L 254.44029163448 262.125714285714 L 256.27125470456 270.72000000000037 L 258.16324987697 249.23428571428576 L 260.05524504939 257.8285714285713 L 261.88620811947 277.1657142857141 L 263.78074629615 287.9085714285714 L 265.61170936623 279.31428571428586 L 267.50370453864 253.5314285714285 L 269.39569971106 240.6400000000002 L 271.10459857647 208.41142857142833 L 272.99405074462 221.3028571428574 L 274.8250138147 229.8971428571429 L 276.71700898711 266.4228571428568 L 278.54797205719 257.8285714285713 L 280.43996722961 227.74857142857115 L 282.33196240203 257.8285714285713 L 284.16292547211 266.4228571428568 L 286.05746364878 277.1657142857141 L 287.88842671886 266.4228571428568 L 289.78042189128 234.19428571428568 L 291.6724170637 201.96571428571457 L 293.3813159291 186.9257142857145 L 295.27076809726 199.81714285714278 L 297.10173116734 227.74857142857115 L 298.99372633975 234.19428571428568 L 300.82468940983 219.1542857142856 L 302.71668458225 221.3028571428574 L 304.60867975466 242.7885714285712 L 306.43964282474 266.4228571428568 L 308.33418100142 272.86857142857133 L 310.1651440715 270.72000000000037 L 312.05713924392 251.38285714285752 L 313.94913441633 206.2628571428573 L 315.71906538408 193.37142857142825 L 317.60851755223 206.2628571428573 L 319.43948062231 229.8971428571429 L 321.33147579472 242.7885714285712 L 323.1624388648 251.38285714285752 L 325.05443403722 238.49142857142846 L 326.94642920963 249.23428571428576 L 328.77739227971 275.0171428571431 L 330.67193045639 292.2057142857142 L 332.50289352647 277.1657142857141 L 334.39488869889 251.38285714285752 L 336.2868838713 208.41142857142833 L 337.99578273671 184.77714285714274 L 339.88523490486 204.11428571428556 L 341.71619797494 208.41142857142833 L 343.60819314736 214.85714285714286 L 345.43915621744 206.2628571428573 L 347.33115138985 197.6685714285718 L 349.22314656227 197.6685714285718 L 351.05410963235 219.1542857142856 L 352.94864780903 227.74857142857115 L 354.77961087911 208.41142857142833 L 356.67160605153 191.22285714285726 L 358.56360122394 154.6971428571426 L 360.27250008935 148.25142857142885 L 362.1619522575 150.39999999999984 L 363.99291532758 169.73714285714266 L 365.8849105 195.52000000000004 L 367.71587357008 186.9257142857145 L 369.60786874249 180.47999999999996 L 371.49986391491 223.45142857142838 L 373.33082698499 253.5314285714285 L 375.22536516167 255.6800000000003 L 377.05632823175 264.27428571428584 L 378.94832340416 242.7885714285712 L 380.84031857658 206.2628571428573 L 382.54921744199 184.77714285714274 L 384.43866961014 210.5600000000001 L 386.26963268022 232.04571428571393 L 388.16162785263 251.38285714285752 L 389.99259092271 249.23428571428576 L 391.88458609513 244.937142857143 L 393.77658126754 249.23428571428576 L 395.60754433762 279.31428571428586 L 397.5020825143 285.75999999999965 L 399.33304558438 279.31428571428586 L 401.2250407568 247.08571428571398 L 403.11703592921 204.11428571428556 L 404.88696689696 201.96571428571457 L 406.77641906511 201.96571428571457 L 408.60738213519 236.34285714285744 L 410.4993773076 251.38285714285752 L 412.33034037768 249.23428571428576 L 414.2223355501 225.60000000000014 L 416.11433072252 221.3028571428574 L 417.9452937926 257.8285714285713 L 419.83983196927 268.57142857142856 L 421.67079503935 264.27428571428584 L 423.56279021177 227.74857142857115 L 425.45478538419 195.52000000000004 L 427.16368424959 163.2914285714289 L 429.05313641775 176.1828571428572 L 430.88409948783 193.37142857142825 L 432.77609466024 206.2628571428573 L 434.60705773032 201.96571428571457 L 436.49905290274 193.37142857142825 L 438.39104807515 201.96571428571457 L 440.22201114523 238.49142857142846 L 442.11654932191 244.937142857143 L 443.94751239199 236.34285714285744 L 445.83950756441 204.11428571428556 L 447.73150273682 178.3314285714282 L 449.44040160223 150.39999999999984 L 451.32985377038 163.2914285714289 L 453.16081684046 180.47999999999996 L 455.05281201288 197.6685714285718 L 456.88377508296 208.41142857142833 L 458.77577025537 199.81714285714278 L 460.66776542779 210.5600000000001 L 462.49872849787 227.74857142857115 L 464.39326667455 244.937142857143 L 466.22422974463 225.60000000000014 L 468.11622491704 197.6685714285718 L 470.00822008946 163.2914285714289 L 471.71711895487 148.25142857142885 L 473.60657112302 165.4399999999999 L 475.4375341931 186.9257142857145 L 477.32952936551 204.11428571428556 L 479.16049243559 189.0742857142855 L 481.05248760801 174.03428571428543 L 482.94448278042 182.62857142857172 L 484.7754458505 201.96571428571457 L 486.66998402718 227.74857142857115 L 488.50094709726 223.45142857142838 L 490.39294226968 195.52000000000004 L 492.2849374421 161.14285714285714 L 494.05486840984 154.6971428571426 L 495.94432057799 158.99428571428538 L 497.77528364807 195.52000000000004 L 499.66727882049 219.1542857142856 L 501.49824189057 212.70857142857108 L 503.39023706298 186.9257142857145 L 505.2822322354 197.6685714285718 L 507.11319530548 225.60000000000014 L 509.00773348216 238.49142857142846 L 510.83869655224 229.8971428571429 L 512.73069172465 180.47999999999996 L 514.62268689707 150.39999999999984 L 516.33158576248 141.80571428571432 L 518.22103793063 150.39999999999984 L 520.05200100071 163.2914285714289 L 521.94399617312 182.62857142857172 L 523.7749592432 176.1828571428572 L 525.66695441562 161.14285714285714 L 527.55894958803 180.47999999999996 L 529.38991265811 210.5600000000001 L 531.28445083479 236.34285714285744 L 533.11541390487 223.45142857142838 L 535.00740907729 201.96571428571457 L 536.8994042497 169.73714285714266 L 538.60830311511 163.2914285714289 L 540.49775528326 161.14285714285714 L 542.32871835334 176.1828571428572 L 544.22071352576 191.22285714285726 L 546.05167659584 197.6685714285718 L 547.94367176825 178.3314285714282 L 549.83566694067 180.47999999999996 L 551.66663001075 214.85714285714286 L 553.56116818743 219.1542857142856 L 555.39213125751 204.11428571428556 L 557.28412642992 182.62857142857172 L 559.17612160234 150.39999999999984 L 560.88247746348 150.39999999999984 L 562.7744726359 163.2914285714289 L 564.60543570598 189.0742857142855 L 566.49743087839 193.37142857142825 L 568.32839394847 199.81714285714278 L 570.22038912089 197.6685714285718 L 572.11238429331 199.81714285714278 L 573.94334736339 234.19428571428568 L 575.83788554007 268.57142857142856 L 577.66884861015 259.977142857143 L 579.56084378256 227.74857142857115 L 581.45283895498 191.22285714285726 L 583.22022691846 171.88571428571444 L 585.11222209087 180.47999999999996 L 586.94318516095 191.22285714285726 L 588.83518033337 208.41142857142833 L 590.66614340345 193.37142857142825 L 592.55813857586 180.47999999999996 L 594.45013374828 186.9257142857145 L 596.28109681836 212.70857142857108 L 598.17563499504 240.6400000000002 L 600.00659806512 232.04571428571393 L 601.89859323753 197.6685714285718 L 603.79058840995 178.3314285714282 L 605.49694427109 163.2914285714289 L 607.38893944351 156.84571428571437 L 609.21990251359 169.73714285714266 L 611.111897686 158.99428571428538 L 612.94286075608 156.84571428571437 L 614.8348559285 156.84571428571437 L 616.72685110091 180.47999999999996 L 618.55781417099 197.6685714285718 L 620.45235234767 210.5600000000001 L 622.28331541775 176.1828571428572 L 624.17531059017 158.99428571428538 L 626.06730576259 128.91428571428602 L 627.77366162373 118.17142857142869 L 629.66565679614 120.31999999999971 L 631.49661986622 150.39999999999984 L 633.38861503864 171.88571428571444 L 635.21957810872 171.88571428571444 L 637.11157328114 174.03428571428543 L 639.00356845355 195.52000000000004 L 640.83453152363 227.74857142857115 L 642.72906970031 247.08571428571398 L 644.56003277039 234.19428571428568 L 646.45202794281 208.41142857142833 L 648.34402311522 174.03428571428543 L 650.05037897637 156.84571428571437 L 651.94237414878 167.58857142857167 L 653.77333721886 184.77714285714274 L 655.66533239128 195.52000000000004 L 657.49629546136 193.37142857142825 L 659.38829063377 189.0742857142855 L 661.28028580619 208.41142857142833 L 663.11124887627 236.34285714285744 L 665.00578705295 244.937142857143 L 666.83675012303 244.937142857143 L 668.72874529544 214.85714285714286 L 670.62074046786 171.88571428571444 L 672.38812843134 165.4399999999999 L 674.28012360375 165.4399999999999 L 676.11108667383 174.03428571428543 L 678.00308184625 197.6685714285718 L 679.83404491633 184.77714285714274 L 681.72604008874 174.03428571428543 L 683.61803526116 176.1828571428572 L 685.44899833124 206.2628571428573 L 687.34353650792 225.60000000000014 L 689.174499578 212.70857142857108 L 691.06649475041 195.52000000000004 L 692.95848992283 165.4399999999999 L 694.66484578397 154.6971428571426 L 696.55684095639 152.54857142857162 L 698.38780402647 169.73714285714266 L 700.27979919888 204.11428571428556 L 702.11076226896 176.1828571428572 L 704.00275744138 161.14285714285714 L 705.8947526138 171.88571428571444 L 707.72571568388 210.5600000000001 L 709.62025386056 208.41142857142833 L 711.45121693064 206.2628571428573 L 713.34321210305 180.47999999999996 L 715.23520727547 152.54857142857162 L 716.94156313661 126.76571428571424 L 718.83355830903 118.17142857142869 L 720.66452137911 143.95428571428607 L 722.55651655152 152.54857142857162 L 724.3874796216 158.99428571428538 L 726.27947479402 131.062857142857 L 728.17146996643 146.1028571428571 L 730.00243303651 176.1828571428572 L 731.89697121319 195.52000000000004 L 733.72793428327 184.77714285714274 L 735.61992945569 158.99428571428538 L 737.5119246281 126.76571428571424 L 739.21828048925 116.02285714285694 L 741.11027566166 103.13142857142867 L 742.94123873174 122.4685714285715 L 744.83323390416 141.80571428571432 L 746.66419697424 133.21142857142877 L 748.55619214665 118.17142857142869 L 750.44818731907 111.72571428571416 L 752.27915038915 135.3599999999998 L 754.17368856583 148.25142857142885 L 756.00465163591 137.50857142857154 L 757.89664680832 94.53714285714312 L 759.78864198074 79.49714285714305 L 761.55602994422 64.45714285714303 L 763.44802511663 83.79428571428582 L 765.27898818671 116.02285714285694 L 767.17098335913 128.91428571428602 L 769.00194642921 128.91428571428602 L 770.89394160163 120.31999999999971 L 772.78593677404 133.21142857142877 L 774.61689984412 167.58857142857167 L 776.5114380208 197.6685714285718 L 778.34240109088 178.3314285714282 L 780.2343962633 143.95428571428607 L 782.12639143571 107.42857142857144 L 783.83274729686 92.38857142857137 L 785.72474246927 92.38857142857137 L 787.55570553935 124.61714285714248 L 789.44770071177 141.80571428571432 L 791.27866378185 131.062857142857 L 793.17065895426 118.17142857142869 L 795.06265412668 143.95428571428607 L 796.89361719676 174.03428571428543 L 798.78815537344 191.22285714285726 L 800.61911844352 195.52000000000004 L 802.51111361593 163.2914285714289 L 804.40310878835 139.65714285714256 L 806.10946464949 109.5771428571432 L 808.00145982191 111.72571428571416 L 809.83242289199 131.062857142857 L 811.7244180644 158.99428571428538 L 813.55538113448 163.2914285714289 L 815.4473763069 143.95428571428607 L 817.33937147931 146.1028571428571 L 819.17033454939 158.99428571428538 L 821.06487272607 171.88571428571444 L 822.89583579615 161.14285714285714 L 824.78783096857 137.50857142857154 L 826.67982614098 107.42857142857144 L 828.38618200213 83.79428571428582 L 830.27817717454 94.53714285714312 L 832.10914024462 120.31999999999971 L 834.00113541704 133.21142857142877 L 835.83209848712 126.76571428571424 L 837.72409365953 111.72571428571416 L 839.61608883195 135.3599999999998 L 841.44705190203 158.99428571428538 L 843.34159007871 169.73714285714266 L 845.17255314879 156.84571428571437 L 847.0645483212 120.31999999999971 L 848.95654349362 94.53714285714312 L 850.7239314571 73.05142857142852 L 852.61592662952 79.49714285714305 L 854.4468896996 109.5771428571432 L 856.33888487201 131.062857142857 L 858.16984794209 118.17142857142869 L 860.06184311451 103.13142857142867 L 861.95383828692 124.61714285714248 L 863.784801357 156.84571428571437 L 865.67933953368 180.47999999999996 L 867.51030260376 182.62857142857172 L 869.40229777618 156.84571428571437 L 871.29429294859 122.4685714285715 L 873.00064880974 100.98285714285691 L 874.89264398215 107.42857142857144 L 876.72360705223 118.17142857142869 L 878.61560222465 133.21142857142877 L 880.44656529473 120.31999999999971 L 882.33856046714 113.87428571428597 L 884.23055563956 122.4685714285715 L 886.06151870964 152.54857142857162 L 887.95605688632 169.73714285714266 L 889.7870199564 176.1828571428572 L 891.67901512881 131.062857142857 L 893.57101030123 109.5771428571432 L 895.27736616237 94.53714285714312 L 897.16936133479 105.27999999999963 L 899.00032440487 124.61714285714248 L 900.89231957728 131.062857142857 L 902.72328264736 131.062857142857 L 904.61527781978 113.87428571428597 L 906.50727299219 124.61714285714248 L 908.33823606227 158.99428571428538 L 910.23277423895 169.73714285714266 L 912.06373730903 154.6971428571426 L 913.95573248145 131.062857142857 L 915.84772765387 96.68571428571414 L 917.55408351501 62.30857142857121 L 919.44607868742 51.565714285713966 L 921.2770417575 77.34857142857129 L 923.16903692992 81.64571428571406 L 925 62.30857142857121" class="highcharts-graph highcharts-zone-graph-0 highcharts-negative" data-z-index="1" stroke="rgb(220,80,0)" stroke-width="2" stroke-linejoin="round" stroke-linecap="round" clip-path="url(#highcharts-fa1fbg5-1513-)"></path><path fill="none" d="M 0 247.08571428571398 L 1.8919951724157 240.6400000000002 L 3.6008940378234 223.45142857142838 L 5.4928892102391 227.74857142857115 L 7.3213092760548 236.34285714285744 L 9.2133044484705 268.57142857142856 L 11.04426751855 277.1657142857141 L 12.936262690966 268.57142857142856 L 14.828257863382 262.125714285714 L 16.659220933461 277.1657142857141 L 18.553759110141 294.35428571428594 L 20.384722180221 266.4228571428568 L 22.276717352636 223.45142857142838 L 24.168712525052 193.37142857142825 L 25.87761139046 191.22285714285726 L 27.769606562875 201.96571428571457 L 29.598026628691 223.45142857142838 L 31.490021801107 236.34285714285744 L 33.320984871187 257.8285714285713 L 35.212980043602 242.7885714285712 L 37.104975216018 251.38285714285752 L 38.935938286098 279.31428571428586 L 40.830476462777 292.2057142857142 L 42.661439532857 281.4628571428569 L 44.553434705273 253.5314285714285 L 46.445429877688 221.3028571428574 L 48.215360845432 217.00571428571462 L 50.107356017848 225.60000000000014 L 51.935776083663 249.23428571428576 L 53.827771256079 275.0171428571431 L 55.658734326159 275.0171428571431 L 57.550729498575 255.6800000000003 L 59.44272467099 251.38285714285752 L 61.27368774107 302.9485714285714 L 63.16822591775 309.39428571428596 L 64.999188987829 305.09714285714324 L 66.891184160245 279.31428571428586 L 68.783179332661 253.5314285714285 L 70.492078198068 242.7885714285712 L 72.384073370484 257.8285714285713 L 74.2124934363 272.86857142857133 L 76.104488608715 298.6514285714287 L 77.935451678795 287.9085714285714 L 79.827446851211 290.05714285714316 L 81.719442023627 287.9085714285714 L 83.550405093706 309.39428571428596 L 85.444943270386 326.58285714285705 L 87.275906340466 309.39428571428596 L 89.167901512881 287.9085714285714 L 91.059896685297 251.38285714285752 L 92.768795550705 238.49142857142846 L 94.66079072312 247.08571428571398 L 96.489210788936 264.27428571428584 L 98.381205961352 270.72000000000037 L 100.21216903143 277.1657142857141 L 102.10416420385 270.72000000000037 L 103.99615937626 264.27428571428584 L 105.82712244634 279.31428571428586 L 107.72166062302 296.5028571428569 L 109.5526236931 292.2057142857142 L 111.44461886552 259.977142857143 L 113.33661403793 227.74857142857115 L 115.04551290334 199.81714285714278 L 116.93496507149 212.70857142857108 L 118.76592814157 232.04571428571393 L 120.65792331399 255.6800000000003 L 122.48888638407 236.34285714285744 L 124.38088155648 221.3028571428574 L 126.2728767289 221.3028571428574 L 128.10383979898 257.8285714285713 L 129.99837797566 262.125714285714 L 131.82934104574 255.6800000000003 L 133.72133621815 217.00571428571462 L 135.61333139057 184.77714285714274 L 137.38326235831 182.62857142857172 L 139.27271452647 197.6685714285718 L 141.10367759654 229.8971428571429 L 142.99567276896 249.23428571428576 L 144.82663583904 257.8285714285713 L 146.71863101146 247.08571428571398 L 148.61062618387 259.977142857143 L 150.44158925395 283.61142857142863 L 152.33612743063 317.9885714285715 L 154.16709050071 313.69142857142873 L 156.05908567313 270.72000000000037 L 157.95108084554 244.937142857143 L 159.65997971095 227.74857142857115 L 161.5494318791 234.19428571428568 L 163.38039494918 249.23428571428576 L 165.2723901216 268.57142857142856 L 167.10335319168 251.38285714285752 L 168.99534836409 247.08571428571398 L 170.88734353651 253.5314285714285 L 172.71830660659 290.05714285714316 L 174.61284478327 294.35428571428594 L 176.44380785335 287.9085714285714 L 178.33580302576 253.5314285714285 L 180.22779819818 206.2628571428573 L 181.93669706359 197.6685714285718 L 183.82614923174 195.52000000000004 L 185.65711230182 214.85714285714286 L 187.54910747423 251.38285714285752 L 189.38007054431 238.49142857142846 L 191.27206571673 229.8971428571429 L 193.16406088914 240.6400000000002 L 194.99502395922 255.6800000000003 L 196.8895621359 279.31428571428586 L 198.72052520598 262.125714285714 L 200.6125203784 240.6400000000002 L 202.50451555081 201.96571428571457 L 204.21341441622 195.52000000000004 L 206.10286658437 189.0742857142855 L 207.93382965445 210.5600000000001 L 209.82582482687 240.6400000000002 L 211.65678789695 234.19428571428568 L 213.54878306936 236.34285714285744 L 215.44077824178 247.08571428571398 L 217.27174131186 279.31428571428586 L 219.16627948854 296.5028571428569 L 220.99724255862 272.86857142857133 L 222.88923773104 244.937142857143 L 224.78123290345 208.41142857142833 L 226.55116387119 201.96571428571457 L 228.44061603935 208.41142857142833 L 230.27157910943 221.3028571428574 L 232.16357428184 255.6800000000003 L 233.99453735192 266.4228571428568 L 235.88653252434 262.125714285714 L 237.77852769675 264.27428571428584 L 239.60949076683 302.9485714285714 L 241.50402894351 309.39428571428596 L 243.33499201359 294.35428571428594 L 245.22698718601 247.08571428571398 L 247.11898235842 221.3028571428574 L 248.82788122383 208.41142857142833 L 250.71733339198 221.3028571428574 L 252.54829646206 234.19428571428568 L 254.44029163448 262.125714285714 L 256.27125470456 270.72000000000037 L 258.16324987697 249.23428571428576 L 260.05524504939 257.8285714285713 L 261.88620811947 277.1657142857141 L 263.78074629615 287.9085714285714 L 265.61170936623 279.31428571428586 L 267.50370453864 253.5314285714285 L 269.39569971106 240.6400000000002 L 271.10459857647 208.41142857142833 L 272.99405074462 221.3028571428574 L 274.8250138147 229.8971428571429 L 276.71700898711 266.4228571428568 L 278.54797205719 257.8285714285713 L 280.43996722961 227.74857142857115 L 282.33196240203 257.8285714285713 L 284.16292547211 266.4228571428568 L 286.05746364878 277.1657142857141 L 287.88842671886 266.4228571428568 L 289.78042189128 234.19428571428568 L 291.6724170637 201.96571428571457 L 293.3813159291 186.9257142857145 L 295.27076809726 199.81714285714278 L 297.10173116734 227.74857142857115 L 298.99372633975 234.19428571428568 L 300.82468940983 219.1542857142856 L 302.71668458225 221.3028571428574 L 304.60867975466 242.7885714285712 L 306.43964282474 266.4228571428568 L 308.33418100142 272.86857142857133 L 310.1651440715 270.72000000000037 L 312.05713924392 251.38285714285752 L 313.94913441633 206.2628571428573 L 315.71906538408 193.37142857142825 L 317.60851755223 206.2628571428573 L 319.43948062231 229.8971428571429 L 321.33147579472 242.7885714285712 L 323.1624388648 251.38285714285752 L 325.05443403722 238.49142857142846 L 326.94642920963 249.23428571428576 L 328.77739227971 275.0171428571431 L 330.67193045639 292.2057142857142 L 332.50289352647 277.1657142857141 L 334.39488869889 251.38285714285752 L 336.2868838713 208.41142857142833 L 337.99578273671 184.77714285714274 L 339.88523490486 204.11428571428556 L 341.71619797494 208.41142857142833 L 343.60819314736 214.85714285714286 L 345.43915621744 206.2628571428573 L 347.33115138985 197.6685714285718 L 349.22314656227 197.6685714285718 L 351.05410963235 219.1542857142856 L 352.94864780903 227.74857142857115 L 354.77961087911 208.41142857142833 L 356.67160605153 191.22285714285726 L 358.56360122394 154.6971428571426 L 360.27250008935 148.25142857142885 L 362.1619522575 150.39999999999984 L 363.99291532758 169.73714285714266 L 365.8849105 195.52000000000004 L 367.71587357008 186.9257142857145 L 369.60786874249 180.47999999999996 L 371.49986391491 223.45142857142838 L 373.33082698499 253.5314285714285 L 375.22536516167 255.6800000000003 L 377.05632823175 264.27428571428584 L 378.94832340416 242.7885714285712 L 380.84031857658 206.2628571428573 L 382.54921744199 184.77714285714274 L 384.43866961014 210.5600000000001 L 386.26963268022 232.04571428571393 L 388.16162785263 251.38285714285752 L 389.99259092271 249.23428571428576 L 391.88458609513 244.937142857143 L 393.77658126754 249.23428571428576 L 395.60754433762 279.31428571428586 L 397.5020825143 285.75999999999965 L 399.33304558438 279.31428571428586 L 401.2250407568 247.08571428571398 L 403.11703592921 204.11428571428556 L 404.88696689696 201.96571428571457 L 406.77641906511 201.96571428571457 L 408.60738213519 236.34285714285744 L 410.4993773076 251.38285714285752 L 412.33034037768 249.23428571428576 L 414.2223355501 225.60000000000014 L 416.11433072252 221.3028571428574 L 417.9452937926 257.8285714285713 L 419.83983196927 268.57142857142856 L 421.67079503935 264.27428571428584 L 423.56279021177 227.74857142857115 L 425.45478538419 195.52000000000004 L 427.16368424959 163.2914285714289 L 429.05313641775 176.1828571428572 L 430.88409948783 193.37142857142825 L 432.77609466024 206.2628571428573 L 434.60705773032 201.96571428571457 L 436.49905290274 193.37142857142825 L 438.39104807515 201.96571428571457 L 440.22201114523 238.49142857142846 L 442.11654932191 244.937142857143 L 443.94751239199 236.34285714285744 L 445.83950756441 204.11428571428556 L 447.73150273682 178.3314285714282 L 449.44040160223 150.39999999999984 L 451.32985377038 163.2914285714289 L 453.16081684046 180.47999999999996 L 455.05281201288 197.6685714285718 L 456.88377508296 208.41142857142833 L 458.77577025537 199.81714285714278 L 460.66776542779 210.5600000000001 L 462.49872849787 227.74857142857115 L 464.39326667455 244.937142857143 L 466.22422974463 225.60000000000014 L 468.11622491704 197.6685714285718 L 470.00822008946 163.2914285714289 L 471.71711895487 148.25142857142885 L 473.60657112302 165.4399999999999 L 475.4375341931 186.9257142857145 L 477.32952936551 204.11428571428556 L 479.16049243559 189.0742857142855 L 481.05248760801 174.03428571428543 L 482.94448278042 182.62857142857172 L 484.7754458505 201.96571428571457 L 486.66998402718 227.74857142857115 L 488.50094709726 223.45142857142838 L 490.39294226968 195.52000000000004 L 492.2849374421 161.14285714285714 L 494.05486840984 154.6971428571426 L 495.94432057799 158.99428571428538 L 497.77528364807 195.52000000000004 L 499.66727882049 219.1542857142856 L 501.49824189057 212.70857142857108 L 503.39023706298 186.9257142857145 L 505.2822322354 197.6685714285718 L 507.11319530548 225.60000000000014 L 509.00773348216 238.49142857142846 L 510.83869655224 229.8971428571429 L 512.73069172465 180.47999999999996 L 514.62268689707 150.39999999999984 L 516.33158576248 141.80571428571432 L 518.22103793063 150.39999999999984 L 520.05200100071 163.2914285714289 L 521.94399617312 182.62857142857172 L 523.7749592432 176.1828571428572 L 525.66695441562 161.14285714285714 L 527.55894958803 180.47999999999996 L 529.38991265811 210.5600000000001 L 531.28445083479 236.34285714285744 L 533.11541390487 223.45142857142838 L 535.00740907729 201.96571428571457 L 536.8994042497 169.73714285714266 L 538.60830311511 163.2914285714289 L 540.49775528326 161.14285714285714 L 542.32871835334 176.1828571428572 L 544.22071352576 191.22285714285726 L 546.05167659584 197.6685714285718 L 547.94367176825 178.3314285714282 L 549.83566694067 180.47999999999996 L 551.66663001075 214.85714285714286 L 553.56116818743 219.1542857142856 L 555.39213125751 204.11428571428556 L 557.28412642992 182.62857142857172 L 559.17612160234 150.39999999999984 L 560.88247746348 150.39999999999984 L 562.7744726359 163.2914285714289 L 564.60543570598 189.0742857142855 L 566.49743087839 193.37142857142825 L 568.32839394847 199.81714285714278 L 570.22038912089 197.6685714285718 L 572.11238429331 199.81714285714278 L 573.94334736339 234.19428571428568 L 575.83788554007 268.57142857142856 L 577.66884861015 259.977142857143 L 579.56084378256 227.74857142857115 L 581.45283895498 191.22285714285726 L 583.22022691846 171.88571428571444 L 585.11222209087 180.47999999999996 L 586.94318516095 191.22285714285726 L 588.83518033337 208.41142857142833 L 590.66614340345 193.37142857142825 L 592.55813857586 180.47999999999996 L 594.45013374828 186.9257142857145 L 596.28109681836 212.70857142857108 L 598.17563499504 240.6400000000002 L 600.00659806512 232.04571428571393 L 601.89859323753 197.6685714285718 L 603.79058840995 178.3314285714282 L 605.49694427109 163.2914285714289 L 607.38893944351 156.84571428571437 L 609.21990251359 169.73714285714266 L 611.111897686 158.99428571428538 L 612.94286075608 156.84571428571437 L 614.8348559285 156.84571428571437 L 616.72685110091 180.47999999999996 L 618.55781417099 197.6685714285718 L 620.45235234767 210.5600000000001 L 622.28331541775 176.1828571428572 L 624.17531059017 158.99428571428538 L 626.06730576259 128.91428571428602 L 627.77366162373 118.17142857142869 L 629.66565679614 120.31999999999971 L 631.49661986622 150.39999999999984 L 633.38861503864 171.88571428571444 L 635.21957810872 171.88571428571444 L 637.11157328114 174.03428571428543 L 639.00356845355 195.52000000000004 L 640.83453152363 227.74857142857115 L 642.72906970031 247.08571428571398 L 644.56003277039 234.19428571428568 L 646.45202794281 208.41142857142833 L 648.34402311522 174.03428571428543 L 650.05037897637 156.84571428571437 L 651.94237414878 167.58857142857167 L 653.77333721886 184.77714285714274 L 655.66533239128 195.52000000000004 L 657.49629546136 193.37142857142825 L 659.38829063377 189.0742857142855 L 661.28028580619 208.41142857142833 L 663.11124887627 236.34285714285744 L 665.00578705295 244.937142857143 L 666.83675012303 244.937142857143 L 668.72874529544 214.85714285714286 L 670.62074046786 171.88571428571444 L 672.38812843134 165.4399999999999 L 674.28012360375 165.4399999999999 L 676.11108667383 174.03428571428543 L 678.00308184625 197.6685714285718 L 679.83404491633 184.77714285714274 L 681.72604008874 174.03428571428543 L 683.61803526116 176.1828571428572 L 685.44899833124 206.2628571428573 L 687.34353650792 225.60000000000014 L 689.174499578 212.70857142857108 L 691.06649475041 195.52000000000004 L 692.95848992283 165.4399999999999 L 694.66484578397 154.6971428571426 L 696.55684095639 152.54857142857162 L 698.38780402647 169.73714285714266 L 700.27979919888 204.11428571428556 L 702.11076226896 176.1828571428572 L 704.00275744138 161.14285714285714 L 705.8947526138 171.88571428571444 L 707.72571568388 210.5600000000001 L 709.62025386056 208.41142857142833 L 711.45121693064 206.2628571428573 L 713.34321210305 180.47999999999996 L 715.23520727547 152.54857142857162 L 716.94156313661 126.76571428571424 L 718.83355830903 118.17142857142869 L 720.66452137911 143.95428571428607 L 722.55651655152 152.54857142857162 L 724.3874796216 158.99428571428538 L 726.27947479402 131.062857142857 L 728.17146996643 146.1028571428571 L 730.00243303651 176.1828571428572 L 731.89697121319 195.52000000000004 L 733.72793428327 184.77714285714274 L 735.61992945569 158.99428571428538 L 737.5119246281 126.76571428571424 L 739.21828048925 116.02285714285694 L 741.11027566166 103.13142857142867 L 742.94123873174 122.4685714285715 L 744.83323390416 141.80571428571432 L 746.66419697424 133.21142857142877 L 748.55619214665 118.17142857142869 L 750.44818731907 111.72571428571416 L 752.27915038915 135.3599999999998 L 754.17368856583 148.25142857142885 L 756.00465163591 137.50857142857154 L 757.89664680832 94.53714285714312 L 759.78864198074 79.49714285714305 L 761.55602994422 64.45714285714303 L 763.44802511663 83.79428571428582 L 765.27898818671 116.02285714285694 L 767.17098335913 128.91428571428602 L 769.00194642921 128.91428571428602 L 770.89394160163 120.31999999999971 L 772.78593677404 133.21142857142877 L 774.61689984412 167.58857142857167 L 776.5114380208 197.6685714285718 L 778.34240109088 178.3314285714282 L 780.2343962633 143.95428571428607 L 782.12639143571 107.42857142857144 L 783.83274729686 92.38857142857137 L 785.72474246927 92.38857142857137 L 787.55570553935 124.61714285714248 L 789.44770071177 141.80571428571432 L 791.27866378185 131.062857142857 L 793.17065895426 118.17142857142869 L 795.06265412668 143.95428571428607 L 796.89361719676 174.03428571428543 L 798.78815537344 191.22285714285726 L 800.61911844352 195.52000000000004 L 802.51111361593 163.2914285714289 L 804.40310878835 139.65714285714256 L 806.10946464949 109.5771428571432 L 808.00145982191 111.72571428571416 L 809.83242289199 131.062857142857 L 811.7244180644 158.99428571428538 L 813.55538113448 163.2914285714289 L 815.4473763069 143.95428571428607 L 817.33937147931 146.1028571428571 L 819.17033454939 158.99428571428538 L 821.06487272607 171.88571428571444 L 822.89583579615 161.14285714285714 L 824.78783096857 137.50857142857154 L 826.67982614098 107.42857142857144 L 828.38618200213 83.79428571428582 L 830.27817717454 94.53714285714312 L 832.10914024462 120.31999999999971 L 834.00113541704 133.21142857142877 L 835.83209848712 126.76571428571424 L 837.72409365953 111.72571428571416 L 839.61608883195 135.3599999999998 L 841.44705190203 158.99428571428538 L 843.34159007871 169.73714285714266 L 845.17255314879 156.84571428571437 L 847.0645483212 120.31999999999971 L 848.95654349362 94.53714285714312 L 850.7239314571 73.05142857142852 L 852.61592662952 79.49714285714305 L 854.4468896996 109.5771428571432 L 856.33888487201 131.062857142857 L 858.16984794209 118.17142857142869 L 860.06184311451 103.13142857142867 L 861.95383828692 124.61714285714248 L 863.784801357 156.84571428571437 L 865.67933953368 180.47999999999996 L 867.51030260376 182.62857142857172 L 869.40229777618 156.84571428571437 L 871.29429294859 122.4685714285715 L 873.00064880974 100.98285714285691 L 874.89264398215 107.42857142857144 L 876.72360705223 118.17142857142869 L 878.61560222465 133.21142857142877 L 880.44656529473 120.31999999999971 L 882.33856046714 113.87428571428597 L 884.23055563956 122.4685714285715 L 886.06151870964 152.54857142857162 L 887.95605688632 169.73714285714266 L 889.7870199564 176.1828571428572 L 891.67901512881 131.062857142857 L 893.57101030123 109.5771428571432 L 895.27736616237 94.53714285714312 L 897.16936133479 105.27999999999963 L 899.00032440487 124.61714285714248 L 900.89231957728 131.062857142857 L 902.72328264736 131.062857142857 L 904.61527781978 113.87428571428597 L 906.50727299219 124.61714285714248 L 908.33823606227 158.99428571428538 L 910.23277423895 169.73714285714266 L 912.06373730903 154.6971428571426 L 913.95573248145 131.062857142857 L 915.84772765387 96.68571428571414 L 917.55408351501 62.30857142857121 L 919.44607868742 51.565714285713966 L 921.2770417575 77.34857142857129 L 923.16903692992 81.64571428571406 L 925 62.30857142857121" class="highcharts-graph highcharts-zone-graph-1" data-z-index="1" stroke="rgb(180,32,0)" stroke-width="2" stroke-linejoin="round" stroke-linecap="round" clip-path="url(#highcharts-fa1fbg5-1514-)"></path></g><g class="highcharts-markers highcharts-series-0 highcharts-line-series" data-z-index="0.1" opacity="1" transform="translate(65,74) scale(1 1)" clip-path="none"></g></g><text x="510" text-anchor="middle" class="highcharts-title" data-z-index="4" style="color:rgb(72,72,72);font-size:20px;font-weight:normal;fill:rgb(72,72,72);" y="25"><tspan>World (60S-60N) Monthly Sea Surface Temperature (C)</tspan></text><text x="510" text-anchor="middle" class="highcharts-subtitle" data-z-index="4" style="color:rgb(128,128,128);font-size:12px;font-weight:normal;fill:rgb(128,128,128);" y="47"><tspan>Data Source: OISST V2.1 | ClimateReanalyzer.org, Climate Change Institute, University of Maine</tspan></text><text x="10" text-anchor="start" class="highcharts-caption" data-z-index="4" style="color:#666666;fill:#666666;" y="497"></text><g class="highcharts-axis-labels highcharts-xaxis-labels" data-z-index="7"><text x="131.01639069343" style="color:rgb(72,72,72);cursor:default;font-size:14px;font-weight:normal;fill:rgb(72,72,72);" text-anchor="middle" transform="translate(0,0)" y="472" opacity="1">1985</text><text x="242.46100955895" style="color:rgb(72,72,72);cursor:default;font-size:14px;font-weight:normal;fill:rgb(72,72,72);" text-anchor="middle" transform="translate(0,0)" y="472" opacity="1">1990</text><text x="353.90562842446" style="color:rgb(72,72,72);cursor:default;font-size:14px;font-weight:normal;fill:rgb(72,72,72);" text-anchor="middle" transform="translate(0,0)" y="472" opacity="1">1995</text><text x="465.35024728998" style="color:rgb(72,72,72);cursor:default;font-size:14px;font-weight:normal;fill:rgb(72,72,72);" text-anchor="middle" transform="translate(0,0)" y="472" opacity="1">2000</text><text x="576.85589825784" style="color:rgb(72,72,72);cursor:default;font-size:14px;font-weight:normal;fill:rgb(72,72,72);" text-anchor="middle" transform="translate(0,0)" y="472" opacity="1">2005</text><text x="688.30051712335" style="color:rgb(72,72,72);cursor:default;font-size:14px;font-weight:normal;fill:rgb(72,72,72);" text-anchor="middle" transform="translate(0,0)" y="472" opacity="1">2010</text><text x="799.74513598887" style="color:rgb(72,72,72);cursor:default;font-size:14px;font-weight:normal;fill:rgb(72,72,72);" text-anchor="middle" transform="translate(0,0)" y="472" opacity="1">2015</text><text x="911.18975485439" style="color:rgb(72,72,72);cursor:default;font-size:14px;font-weight:normal;fill:rgb(72,72,72);" text-anchor="middle" transform="translate(0,0)" y="472" opacity="1">2020</text></g><g class="highcharts-axis-labels highcharts-yaxis-labels" data-z-index="7"><text x="50" style="color:rgb(72,72,72);cursor:default;font-size:14px;font-weight:normal;fill:rgb(72,72,72);" text-anchor="end" transform="translate(0,0)" y="454" opacity="1">19.5</text><text x="50" style="color:rgb(72,72,72);cursor:default;font-size:14px;font-weight:normal;fill:rgb(72,72,72);" text-anchor="end" transform="translate(0,0)" y="400" opacity="1">19.75</text><text x="50" style="color:rgb(72,72,72);cursor:default;font-size:14px;font-weight:normal;fill:rgb(72,72,72);" text-anchor="end" transform="translate(0,0)" y="346" opacity="1">20</text><text x="50" style="color:rgb(72,72,72);cursor:default;font-size:14px;font-weight:normal;fill:rgb(72,72,72);" text-anchor="end" transform="translate(0,0)" y="292" opacity="1">20.25</text><text x="50" style="color:rgb(72,72,72);cursor:default;font-size:14px;font-weight:normal;fill:rgb(72,72,72);" text-anchor="end" transform="translate(0,0)" y="239" opacity="1">20.5</text><text x="50" style="color:rgb(72,72,72);cursor:default;font-size:14px;font-weight:normal;fill:rgb(72,72,72);" text-anchor="end" transform="translate(0,0)" y="185" opacity="1">20.75</text><text x="50" style="color:rgb(72,72,72);cursor:default;font-size:14px;font-weight:normal;fill:rgb(72,72,72);" text-anchor="end" transform="translate(0,0)" y="131" opacity="1">21</text><text x="50" style="color:rgb(72,72,72);cursor:default;font-size:14px;font-weight:normal;fill:rgb(72,72,72);" text-anchor="end" transform="translate(0,0)" y="78" opacity="1">21.25</text></g></svg>